<?xml version="1.0" encoding="UTF-8" standalone="no"?>
<svg
   xmlns:dc="http://purl.org/dc/elements/1.1/"
   xmlns:cc="http://creativecommons.org/ns#"
   xmlns:rdf="http://www.w3.org/1999/02/22-rdf-syntax-ns#"
   xmlns:svg="http://www.w3.org/2000/svg"
   xmlns="http://www.w3.org/2000/svg"
   xmlns:sodipodi="http://sodipodi.sourceforge.net/DTD/sodipodi-0.dtd"
   xmlns:inkscape="http://www.inkscape.org/namespaces/inkscape"
   version="1.1"
   id="layer"
   x="0px"
   y="0px"
   viewBox="0 0 652 300"
   xml:space="preserve"
   sodipodi:docname="city-of-fort-collins-vector-logo.svg"
   width="652"
   height="300"
   inkscape:version="1.0.1 (3bc2e813f5, 2020-09-07)"><metadata
   id="metadata53"><rdf:RDF><cc:Work
       rdf:about=""><dc:format>image/svg+xml</dc:format><dc:type
         rdf:resource="http://purl.org/dc/dcmitype/StillImage" /><dc:title></dc:title></cc:Work></rdf:RDF></metadata><defs
   id="defs51" /><sodipodi:namedview
   pagecolor="#ffffff"
   bordercolor="#666666"
   borderopacity="1"
   objecttolerance="10"
   gridtolerance="10"
   guidetolerance="10"
   inkscape:pageopacity="0"
   inkscape:pageshadow="2"
   inkscape:window-width="1920"
   inkscape:window-height="1002"
   id="namedview49"
   showgrid="false"
   inkscape:zoom="1.3159509"
   inkscape:cx="326"
   inkscape:cy="174.52525"
   inkscape:window-x="-8"
   inkscape:window-y="42"
   inkscape:window-maximized="1"
   inkscape:current-layer="layer" />
<style
   type="text/css"
   id="style2">
	.st0{fill:#428BCA;}
</style>
<polygon
   class="st0"
   points="113.3,273.8 153.5,273.8 153.5,261.8 100.8,261.8 100.8,333.6 113.3,336.1 113.3,309.8 147.6,309.8 147.6,298.5 113.3,298.5 "
   id="polygon4"
   transform="translate(-3.7995338,-160.34033)" />
<g
   id="g24"
   transform="translate(-3.7995338,-160.34033)">
	<path
   class="st0"
   d="m 192.2,232.1 c -3.1,-3.3 -5.9,-4.2 -8.8,-4.2 -8.6,0 -14.4,6.7 -14.4,15.3 0,9.1 5.7,15.8 14.4,15.8 3.4,0 6.6,-1.6 9.4,-5.2 l 6.2,4.5 c -3.8,5.3 -9.5,7.6 -15.6,7.6 -12.9,0 -22.1,-8.9 -22.1,-22.2 0,-13.7 9.2,-22.6 22.1,-22.6 5.7,0 10.5,1.9 14.7,6.7 z"
   id="path6" />
	<path
   class="st0"
   d="m 213,242 v -6.2 h 5.9 v -8.4 h 7.1 v 8.4 h 7.8 V 242 H 226 v 12.7 c 0,2.9 0.8,4.7 4,4.7 1.2,0 3,-0.2 3.8,-0.9 v 6.1 c -1.5,0.7 -4,1 -5.6,1 -7.5,0 -9.3,-3.4 -9.3,-10.3 V 242 Z"
   id="path8" />
	<path
   class="st0"
   d="m 240.6,272.8 c 3.5,0 4.4,-1.3 5.6,-4.3 l 1.4,-3.4 -12.1,-29.2 h 7.8 l 7.9,20.1 h 0.1 l 7.1,-20.1 h 7.4 L 252.4,271 c -2.1,5.4 -5.4,8.1 -11.7,8.1 z"
   id="path10" />
	<path
   class="st0"
   d="m 292.2,259 c 5.2,0 8.4,-4.2 8.4,-8.7 0,-4.5 -3.1,-8.7 -8.4,-8.7 -5.2,0 -8.4,4.2 -8.4,8.7 0,4.6 3.1,8.7 8.4,8.7 m 0,-23.8 c 8.6,0 15.5,6.1 15.5,15.2 0,9.1 -6.9,15.2 -15.5,15.2 -8.6,0 -15.5,-6.1 -15.5,-15.2 0,-9.2 6.9,-15.2 15.5,-15.2"
   id="path12" />
	<path
   class="st0"
   d="m 314.4,242 h -5.9 v -6.2 h 5.9 v -4.1 c 0,-8 1.8,-13.3 10.6,-13.3 1.5,0 3,0.1 4.5,0.4 l -0.5,6.1 c -1,-0.2 -2,-0.4 -3,-0.4 -4,0 -4.6,2.8 -4.6,6 v 5.2 h 6.6 v 6.2 h -6.6 v 22.8 h -7.1 V 242 Z"
   id="path14" />
	<path
   class="st0"
   d="m 578.6,327.4 c 5.1,5.1 10.6,7.7 18.5,7.7 6.7,0 11.6,-2.6 11.6,-7.7 0,-4.2 -3.1,-5.5 -7.2,-5.9 l -10.4,-0.9 c -9.7,-0.8 -16.9,-6.7 -16.9,-17 0,-12.1 9.5,-18.4 21.9,-18.4 10.3,0 17.3,3.2 23,8.1 l -7.3,8.7 c -4.6,-3.3 -9.4,-5.5 -15.7,-5.5 -7.5,0 -10.1,3.1 -10.1,7.2 0,2.6 1.8,5.2 7.7,5.6 l 9.7,0.7 c 12.1,0.8 17,8.4 17,17.9 0,11.7 -10.6,18.4 -24.3,18.4 -9.5,0 -18.3,-3.5 -25.8,-10.7 z"
   id="path16" />
	<path
   class="st0"
   d="m 264.4,273.7 h 11.8 V 286 h 8.6 v 9.2 h -8.6 V 330 c 0,3.3 1.3,4.5 4.2,4.5 h 4.4 v 11.3 h -6.1 c -8.2,0 -14.2,-5.3 -14.2,-14.7 v -35.8 h -5.9 v -9.2 h 5.9 v -12.4 z"
   id="path18" />
	<path
   class="st0"
   d="m 444.9,261.8 h 11.8 v 68.5 c 0,2.7 1.5,4.1 4.4,4.1 h 4.1 v 11.3 H 460 c -8.6,0 -15.1,-3.8 -15.1,-14.5 z"
   id="path20" />
	<path
   class="st0"
   d="m 470.7,261.8 h 11.8 v 68.5 c 0,2.7 1.5,4.1 4.4,4.1 h 4.1 v 11.3 h -5.2 c -8.5,0 -15,-3.8 -15,-14.5 v -69.4 z"
   id="path22" />
</g>
<rect
   x="494.10046"
   y="131.95966"
   class="st0"
   width="11.8"
   height="53.400002"
   id="rect26" />
<rect
   x="494.10046"
   y="116.05967"
   class="st0"
   width="11.8"
   height="12"
   id="rect28" />
<rect
   x="198.40047"
   y="75.559669"
   class="st0"
   width="7.0999999"
   height="28.9"
   id="rect30" />
<rect
   x="198.40047"
   y="65.959679"
   class="st0"
   width="7.0999999"
   height="7.1999998"
   id="rect32" />
<path
   class="st0"
   d="m 514.70046,125.55967 h 11.8 v 6.4 h 0.2 c 3.7,-4.7 9,-7.1 15.3,-7.1 9.1,0 19.6,7.2 19.6,20.7 v 39.7 h -11.8 v -35.6 c 0,-8.1 -5,-12.8 -11.6,-12.8 -6.7,0 -11.7,4.7 -11.7,12.8 v 35.6 h -11.8 z"
   id="path34" />
<path
   class="st0"
   d="m 212.00046,125.55967 h 11.8 v 6.4 h 0.2 c 3.7,-4.7 9,-7.1 15.3,-7.1 4.7,0 8.7,1.8 12.3,4.6 l -8.6,10.4 c -2.8,-2.1 -4.7,-3 -7.7,-3 -5.8,0 -11.5,3.8 -11.5,12.5 v 35.9 h -11.8 z"
   id="path36" />
<path
   class="st0"
   d="m 387.70046,155.55967 c 0,-10.6 8.5,-19.2 18.9,-19.2 10.4,0 18.9,8.6 18.9,19.2 0,10.6 -8.5,19.2 -18.9,19.2 -10.5,0 -18.9,-8.6 -18.9,-19.2 m -11.3,0 c 0,16.9 13.5,30.7 30.2,30.7 16.6,0 30.2,-13.8 30.2,-30.7 0,-16.9 -13.5,-30.7 -30.2,-30.7 -16.6,0 -30.2,13.7 -30.2,30.7"
   id="path38" />
<path
   class="st0"
   d="m 302.10046,144.25967 c 0,22.8 18.3,41.4 40.7,41.4 12.8,0 25,-6.2 32.7,-16.7 l -9,-6.8 c -5.6,7.7 -14.2,12.1 -23.6,12.1 -16.2,0 -29.4,-13.5 -29.4,-30 0,-16.5 13.2,-30 29.4,-30 8.8,0 17.1,4 22.7,10.9 l 8.7,-7.3 c -7.8,-9.6 -19.2,-15.09999 -31.4,-15.09999 -22.5,0.1 -40.8,18.69999 -40.8,41.49999"
   id="path40" />
<path
   class="st0"
   d="m 158.00046,155.55967 c 0,-10.6 8.5,-19.2 18.9,-19.2 10.4,0 18.9,8.6 18.9,19.2 0,10.6 -8.5,19.2 -18.9,19.2 -10.4,0 -18.9,-8.6 -18.9,-19.2 m -11.3,0 c 0,16.9 13.5,30.7 30.1,30.7 16.6,0 30.2,-13.8 30.2,-30.7 0,-16.9 -13.5,-30.7 -30.2,-30.7 -16.5,0 -30.1,13.7 -30.1,30.7"
   id="path42" />
<path
   class="st0"
   d="m 125.40046,185.25967 -5.9,-1.2 -7,6.2 -1.2,-8 -16.399998,-3.4 -6.999996,7 -2.1,-8.4 c -42.2,3.7 -69.1,55.2 -69.1,55.2 0,0 39.3,-46.2 66.6,-48.9 l 3.3,10.7 10.099996,-10 10.399998,2.5 2.3,11.5 10.3,-8 4.5,1.1 c 47.5,91.1 129,40.5 129,40.5 -90.1,11.9 -96,-28.6 -127.8,-46.8"
   id="path44" />
<path
   class="st0"
   d="m 151.10046,233.65967 c 96.7,75.9 203.5,-128.6 460.4,15.1 0,0 -128.8,-68.8 -270.1,-16.1 -156.5,58.2 -190.3,1 -190.3,1"
   id="path46" />
</svg>
